PathFileType	4	(X/Y/Z)	C:\Users\WrightLab\Desktop\Jo\P1.2Trial32.trc
DataRate	CameraRate	NumFrames	NumMarkers	Units	OrigDataRate	OrigDataStartFrame	OrigNumFrames
100.00	100.00	       14	19	mm	100.00	363	       724
Frame#	Time	Headset_Front			Headset_Back			Headset_Left			Headset_Right			Left_Shoulder			Right_Shoulder			Sternum			C7			Left Elbow			Right Elbow			Left Wrist			Right Wrist			Left ASIS			Right ASIS			S2			Left Knee			Right Knee			Left Ankle			Right Ankle			
		X1	Y1	Z1	X2	Y2	Z2	X3	Y3	Z3	X4	Y4	Z4	X5	Y5	Z5	X6	Y6	Z6	X7	Y7	Z7	X8	Y8	Z8	X9	Y9	Z9	X10	Y10	Z10	X11	Y11	Z11	X12	Y12	Z12	X13	Y13	Z13	X14	Y14	Z14	X15	Y15	Z15	X16	Y16	Z16	X17	Y17	Z17	X18	Y18	Z18	X19	Y19	Z19	

363	3.620	-372.25171	1372.68799	235.74023	-515.68915	1512.81445	4.99670	-365.73141	1434.98682	32.02159	-512.48981	1425.80298	212.64034	-336.07135	1221.71106	-79.64297	-673.01270	1251.59656	178.07022	-432.82153	1177.34851	145.79245	-571.63898	1300.50256	-40.26845	-289.91846	928.91217	-104.74081	-776.45642	1009.03131	194.47469	-216.34875	746.94690	55.96905	-774.45569	764.07678	317.42465	-347.58286	859.10907	60.50784	-568.00702	859.89746	234.88383	-628.19812	898.46936	-78.03698	-417.66534	413.71237	40.13273	-560.59302	472.17700	306.71683	-552.79767	70.88531	-41.40715	-594.51526	134.40860	373.85297	
364	3.630	-367.78021	1371.47791	245.05974	-512.59863	1510.89355	14.68382	-362.63675	1434.05969	42.08660	-508.48267	1424.03162	222.19505	-333.11560	1220.19983	-71.76566	-665.25647	1249.09766	191.34198	-428.63647	1175.34900	153.94012	-569.02863	1298.64612	-30.76917	-287.10992	927.22699	-97.29182	-771.66974	1007.82581	204.94373	-214.56631	744.27643	62.78685	-770.78149	762.35718	327.41785	-345.82391	857.81226	67.54897	-562.04510	857.37732	244.62967	-627.37585	897.40820	-67.95459	-416.89090	411.32645	43.50771	-550.89209	469.63724	312.31937	-553.28595	70.37496	-40.87605	-574.84637	138.73557	394.37592	
365	3.640	-364.04865	1369.38879	251.31378	-509.88556	1510.54700	24.08507	-358.92920	1432.37646	49.66615	-504.12152	1422.23682	231.22897	-330.10205	1218.46362	-64.29035	-660.48773	1247.86426	201.37427	-423.34555	1173.43188	162.55194	-565.81274	1297.61670	-21.81725	-284.28986	925.61615	-90.61976	-766.81140	1005.90240	215.78021	-212.28497	742.85504	69.05743	-767.05017	760.37250	337.35242	-343.84158	854.60773	72.90382	-556.29669	855.45990	254.48767	-625.56177	895.93933	-58.34327	-415.93076	409.47171	46.41581	-542.83466	468.19742	320.02151	-553.31287	70.55542	-41.19059	-558.44452	144.53630	411.90726	
366	3.650	-358.33481	1368.11426	261.99435	-506.67740	1509.08765	33.56724	-355.46729	1431.96301	58.76732	-499.52377	1420.45569	240.54401	-327.16830	1216.89258	-56.58007	-655.30139	1245.37744	212.07707	-417.88849	1171.61792	170.42769	-562.82568	1296.19153	-12.14436	-281.50699	924.15179	-83.48598	-761.01758	1003.53143	228.26894	-209.19489	741.08289	75.76283	-763.83472	758.67358	347.31268	-340.24326	853.36609	79.89960	-549.90009	853.59796	263.85727	-624.72540	895.46344	-48.72564	-414.42914	407.77841	49.56328	-533.93524	466.46313	327.66263	-553.38965	70.50758	-41.37931	-540.35168	149.64624	428.79150	
367	3.660	-355.35306	1366.43433	269.38150	-503.41367	1507.87695	42.89708	-351.99539	1430.61389	68.03576	-495.70685	1418.90222	250.20450	-324.12149	1215.10596	-49.09304	-649.83368	1243.10828	222.52414	-412.22995	1169.71667	177.90923	-558.82269	1294.55432	-1.70209	-278.69241	922.21118	-76.12376	-756.24658	1001.62103	238.66336	-206.33293	740.14856	81.81535	-760.94904	757.25232	357.49612	-337.67303	851.37683	86.45315	-543.73340	851.17957	273.52988	-622.50244	893.60547	-38.69665	-413.27023	406.41898	53.65404	-525.00000	465.56927	335.32385	-553.39777	70.50575	-41.37911	-521.99915	155.26077	444.06491	
368	3.670	-351.08313	1365.17029	277.68643	-500.13449	1506.47717	52.12135	-348.05701	1429.71252	76.82903	-491.20010	1417.20178	259.43213	-320.45663	1213.25610	-39.94707	-643.58551	1240.84338	232.83180	-407.49252	1167.81116	187.09988	-555.40564	1292.96704	7.94022	-275.94458	920.45435	-68.97373	-751.25165	999.71039	249.14497	-203.04718	737.32697	88.87431	-756.67932	754.76044	367.49066	-334.53415	849.21820	92.71466	-537.73242	849.03839	283.64996	-620.88574	892.98187	-29.50495	-411.58224	404.89902	57.80893	-517.67645	464.26144	342.66357	-554.55426	70.43513	-41.31553	-504.01019	160.50798	458.14697	
369	3.680	-346.17789	1363.76831	287.18896	-496.82062	1505.01404	61.75529	-344.87140	1428.95093	85.65907	-487.07220	1415.69165	268.95438	-317.39124	1211.43896	-32.48463	-638.92627	1239.35278	243.05869	-402.30582	1165.97375	196.28415	-551.58862	1291.44617	17.84228	-274.10330	918.58765	-59.47678	-746.05615	997.79657	259.54321	-199.76608	734.71735	95.54319	-753.09082	752.61493	377.18869	-331.22928	847.47949	100.50600	-531.68176	846.85742	293.41080	-618.07355	891.23987	-19.19530	-409.67081	403.15366	61.71487	-510.63538	462.99133	350.31229	-553.97803	70.49905	-41.04553	-487.12180	168.10948	472.27179	
370	3.690	-342.26425	1363.14941	296.22244	-493.58603	1503.66785	71.03888	-341.46561	1427.55066	95.04205	-483.42758	1414.02051	278.66205	-313.81879	1209.98010	-23.59645	-633.31226	1236.91125	254.07028	-396.65472	1164.84790	205.42784	-547.48468	1289.67664	27.68788	-271.81412	916.70837	-52.05367	-740.93317	995.80817	270.16827	-196.75882	731.46490	102.16377	-749.15869	750.75085	386.80020	-328.47424	846.20026	109.01891	-525.18018	844.93811	302.75836	-615.66608	890.14191	-10.28679	-407.26941	401.94495	65.58201	-503.12622	461.61295	357.97037	-553.62598	70.85269	-40.97461	-470.12070	174.52426	484.10916	
371	3.700	-337.62677	1362.38928	305.68890	-490.40836	1502.21106	80.66414	-338.12521	1426.78748	104.21047	-479.16107	1413.20544	288.12192	-310.39340	1208.77881	-15.22207	-628.85199	1235.39929	264.89383	-391.53683	1163.17664	214.28723	-543.55811	1287.87280	38.93056	-269.10071	915.27716	-44.92397	-735.09973	993.28314	280.40704	-193.19827	728.54504	108.21181	-745.45337	749.08679	397.34418	-324.02722	845.15057	117.08794	-519.31696	843.19073	312.26294	-612.61871	888.85748	-1.15255	-404.61041	400.32697	70.85878	-496.20288	460.47803	365.81180	-553.11438	71.66393	-40.20520	-456.00598	181.74892	495.49612	
372	3.710	-333.40057	1362.01306	314.88339	-487.24173	1500.80225	89.96704	-334.49969	1425.83948	113.31018	-474.87683	1412.55334	297.59824	-306.06033	1207.30872	-5.98100	-623.11859	1233.25049	275.42786	-386.25082	1161.78564	224.05284	-540.01416	1286.76135	48.02614	-267.40015	913.78485	-36.64984	-730.25830	991.68317	291.14096	-189.53294	725.53503	113.88623	-740.80115	746.84686	407.56442	-319.86313	843.50629	125.31103	-513.65338	841.54932	322.22617	-609.01202	887.71918	8.82188	-401.18719	400.02939	76.30269	-488.05188	459.19431	374.81998	-552.94757	72.45082	-40.20826	-441.71802	189.13763	505.94449	
373	3.720	-329.46399	1361.87305	324.29138	-484.08701	1499.29871	99.34451	-330.51001	1424.97815	122.50809	-470.47049	1411.53625	307.21359	-302.77914	1206.15259	3.26148	-617.57831	1231.35120	285.53497	-381.29999	1160.26624	233.52382	-535.54230	1284.96802	59.50911	-265.14789	911.98853	-27.69803	-724.71283	989.65875	301.86536	-186.23004	721.82178	118.41714	-736.43195	745.15851	417.58224	-314.62476	842.20703	133.24431	-507.90433	839.78827	331.78375	-605.42780	886.49670	18.32660	-397.79477	398.68210	82.16576	-479.83371	458.48856	383.37375	-552.52216	73.80997	-40.13400	-428.21814	194.59528	514.84430	
374	3.730	-324.62677	1361.87646	333.20685	-480.78470	1497.59033	109.43442	-327.52011	1424.41504	131.41231	-466.88824	1411.21985	316.77771	-298.69785	1205.38403	12.55320	-613.82776	1231.33020	298.43106	-376.01953	1159.17871	243.37175	-531.63287	1283.92065	69.81395	-263.08347	911.45508	-20.16241	-719.29401	987.67267	312.10541	-182.65941	719.51031	122.81437	-730.99719	742.83643	427.30051	-309.34683	842.38385	143.19357	-502.45923	838.83356	341.19739	-601.60693	885.74298	27.77664	-393.91479	398.11749	87.74071	-472.32895	458.25821	394.18549	-552.14929	76.09684	-39.01830	-415.53088	199.43019	522.65338	
375	3.740	-319.90604	1362.38403	343.21661	-477.64206	1496.32666	118.51881	-323.99777	1423.75830	141.29184	-462.37701	1410.87463	326.61731	-294.55380	1204.84412	22.11317	-609.70605	1230.03809	308.90494	-370.79935	1158.02795	253.24467	-527.19373	1282.53528	80.07198	-261.87375	910.23804	-11.86441	-714.10535	985.83929	322.67068	-179.54503	716.95789	125.87133	-726.64233	741.34106	437.54636	-304.89783	840.87268	152.94717	-497.20938	837.61700	350.39197	-597.41711	884.19427	37.64644	-390.10950	397.22275	94.63785	-462.95218	457.75189	404.23904	-552.13068	78.31765	-38.78129	-403.31479	203.99413	528.58008	
376	3.750	-316.13602	1363.66272	352.67880	-474.77121	1494.84045	127.89224	-320.34973	1422.98999	150.34511	-457.81729	1411.04468	336.21014	-290.16571	1204.49768	31.55090	-604.27698	1228.13306	320.39169	-365.92126	1157.19910	263.30048	-522.75537	1281.43579	91.13541	-259.63531	909.90875	-4.76778	-708.39667	983.88831	333.37051	-175.49043	714.14984	130.08353	-721.77344	739.96008	447.65945	-297.81741	841.00665	163.98611	-492.55798	836.86646	359.93060	-592.36621	882.98596	47.67156	-385.45413	396.26874	100.07524	-454.48016	456.65732	414.22046	-550.20728	81.02619	-38.32555	-391.61502	204.40691	532.59283	
